<svg xmlns="http://www.w3.org/2000/svg" xmlns:xlink="http://www.w3.org/1999/xlink" width="262" height="273.509" viewBox="0 0 262 273.509"><defs><filter id="a" x="70.755" y="0" width="120.171" height="188.106" filterUnits="userSpaceOnUse"><feOffset input="SourceAlpha"/><feGaussianBlur stdDeviation="10" result="b"/><feFlood flood-opacity="0.349"/><feComposite operator="in" in2="b"/><feComposite in="SourceGraphic"/></filter><filter id="c" x="71.403" y="137.81" width="120.171" height="135.699" filterUnits="userSpaceOnUse"><feOffset input="SourceAlpha"/><feGaussianBlur stdDeviation="10" result="d"/><feFlood flood-opacity="0.349"/><feComposite operator="in" in2="d"/><feComposite in="SourceGraphic"/></filter><filter id="e" x="7.202" y="11.476" width="130.523" height="185.518" filterUnits="userSpaceOnUse"><feOffset input="SourceAlpha"/><feGaussianBlur stdDeviation="10" result="f"/><feFlood flood-opacity="0.349"/><feComposite operator="in" in2="f"/><feComposite in="SourceGraphic"/></filter><filter id="g" x="124.309" y="12.77" width="129.876" height="186.812" filterUnits="userSpaceOnUse"><feOffset input="SourceAlpha"/><feGaussianBlur stdDeviation="10" result="h"/><feFlood flood-opacity="0.349"/><feComposite operator="in" in2="h"/><feComposite in="SourceGraphic"/></filter></defs><g transform="translate(0 11.455)"><g transform="translate(0 0)"><rect width="262" height="259" transform="translate(0 -0.369)" fill="none"/></g><g transform="translate(37.202 18.545)"><g transform="matrix(1, 0, 0, 1, -37.2, -30)" filter="url(#a)"><path d="M154.727,160.368,184.812,32.262,214.9,160.368Z" transform="translate(-53.97 -2.26)" fill="#007fff"/></g><g transform="matrix(1, 0, 0, 1, -37.2, -30)" filter="url(#c)"><path d="M0,75.7,30.085,0,60.171,75.7Z" transform="translate(161.57 243.51) rotate(180)" fill="#007fff"/></g><g transform="matrix(1, 0, 0, 1, -37.2, -30)" filter="url(#e)"><path d="M56.5,175.518l44.643-7.764L127.023,50l-.138.246Z" transform="translate(-19.3 -8.52)" fill="#fff"/></g><g transform="matrix(1, 0, 0, 1, -37.2, -30)" filter="url(#g)"><path d="M262.733,169.107l44.643,9.705L237.5,52Z" transform="translate(-83.19 -9.23)" fill="#fcfcfc"/></g></g></g></svg>